HIERARCHY
ROOT Hips
{
	OFFSET 0.00 0.00 0.00
	CHANNELS 6 Xposition Yposition Zposition Zrotation Xrotation Yrotation
	JOINT Spine
	{
		OFFSET 0 13.7848 0.0644
		CHANNELS 3 Zrotation Xrotation Yrotation
		JOINT Spine1
		{
			OFFSET 0 12.0447 -0
			CHANNELS 3 Zrotation Xrotation Yrotation
			JOINT Spine2
			{
				OFFSET -0 17.8005 -0
				CHANNELS 3 Zrotation Xrotation Yrotation
				JOINT Neck
				{
					OFFSET 0 40.9166 -0
					CHANNELS 3 Zrotation Xrotation Yrotation
					JOINT Head
					{
						OFFSET -0 21.2887 0
						CHANNELS 3 Zrotation Xrotation Yrotation
						JOINT HeadTop_End
						{
							OFFSET 0 17.4474 0
							CHANNELS 3 Zrotation Xrotation Yrotation
						}
					}
				}
				JOINT LeftShoulder
				{
					OFFSET 17.3995 23.8766 -6.0721
					CHANNELS 3 Zrotation Xrotation Yrotation
					JOINT LeftArm
					{
						OFFSET -0 19.9201 -0
						CHANNELS 3 Zrotation Xrotation Yrotation
						JOINT LeftForeArm
						{
							OFFSET -0 49.2901 -0
							CHANNELS 3 Zrotation Xrotation Yrotation
							JOINT LeftHand
							{
								OFFSET 0 31.562 0
								CHANNELS 3 Zrotation Xrotation Yrotation
								JOINT LeftHandThumb1
								{
									OFFSET -7.9466 6.134 2.4863
									CHANNELS 3 Zrotation Xrotation Yrotation
									JOINT LeftHandThumb2
									{
										OFFSET -0.0255 -7.7944 -0.0327
										CHANNELS 3 Zrotation Xrotation Yrotation
										JOINT LeftHandThumb3
										{
											OFFSET -0.0205 -8.3869 0.0307
											CHANNELS 3 Zrotation Xrotation Yrotation
											JOINT LeftHandThumb4
											{
												OFFSET 0.0565 -7.2511 -0.013
												CHANNELS 3 Zrotation Xrotation Yrotation
											}
										}
									}
								}
								JOINT LeftHandPinky1
								{
									OFFSET 10.9531 18.9207 3.2871
									CHANNELS 3 Zrotation Xrotation Yrotation
									JOINT LeftHandPinky2
									{
										OFFSET -0.0034 -4.9187 0.0963
										CHANNELS 3 Zrotation Xrotation Yrotation
										JOINT LeftHandPinky3
										{
											OFFSET 0.0758 -5.2323 0.0358
											CHANNELS 3 Zrotation Xrotation Yrotation
											JOINT LeftHandPinky4
											{
												OFFSET -0.1312 -5.5702 0.001
												CHANNELS 3 Zrotation Xrotation Yrotation
											}
										}
									}
								}
								JOINT LeftHandRing1
								{
									OFFSET 6.2716 22.7261 1.7123
									CHANNELS 3 Zrotation Xrotation Yrotation
									JOINT LeftHandRing2
									{
										OFFSET -0.0452 -6.4083 0.0434
										CHANNELS 3 Zrotation Xrotation Yrotation
										JOINT LeftHandRing3
										{
											OFFSET -0.1152 -6.1487 -0.0756
											CHANNELS 3 Zrotation Xrotation Yrotation
											JOINT LeftHandRing4
											{
												OFFSET -0.2306 -6.141 -0.0323
												CHANNELS 3 Zrotation Xrotation Yrotation
											}
										}
									}
								}
								JOINT LeftHandMiddle1
								{
									OFFSET -0 23.374 -0
									CHANNELS 3 Zrotation Xrotation Yrotation
									JOINT LeftHandMiddle2
									{
										OFFSET -0.1878 -6.9921 -0.168
										CHANNELS 3 Zrotation Xrotation Yrotation
										JOINT LeftHandMiddle3
										{
											OFFSET -0.0477 -7.0158 0.0144
											CHANNELS 3 Zrotation Xrotation Yrotation
											JOINT LeftHandMiddle4
											{
												OFFSET -0.0402 -7.7215 -0.0133
												CHANNELS 3 Zrotation Xrotation Yrotation
											}
										}
									}
								}
								JOINT LeftHandIndex1
								{
									OFFSET -6.1355 21.3106 -1.073
									CHANNELS 3 Zrotation Xrotation Yrotation
									JOINT LeftHandIndex2
									{
										OFFSET 0.0766 -7.536 -0.0238
										CHANNELS 3 Zrotation Xrotation Yrotation
										JOINT LeftHandIndex3
										{
											OFFSET -0.0927 -7.5116 0.0451
											CHANNELS 3 Zrotation Xrotation Yrotation
											JOINT LeftHandIndex4
											{
												OFFSET -0.0002 -10.2123 -0.0339
												CHANNELS 3 Zrotation Xrotation Yrotation
											}
										}
									}
								}
							}
						}
					}
				}
				JOINT RightShoulder
				{
					OFFSET -17.3995 23.8766 -6.0721
					CHANNELS 3 Zrotation Xrotation Yrotation
					JOINT RightArm
					{
						OFFSET 0 19.9201 0
						CHANNELS 3 Zrotation Xrotation Yrotation
						JOINT RightForeArm
						{
							OFFSET 0 49.2901 0
							CHANNELS 3 Zrotation Xrotation Yrotation
							JOINT RightHand
							{
								OFFSET -0 31.562 0
								CHANNELS 3 Zrotation Xrotation Yrotation
								JOINT RightHandThumb1
								{
									OFFSET 7.9466 6.134 2.4863
									CHANNELS 3 Zrotation Xrotation Yrotation
									JOINT RightHandThumb2
									{
										OFFSET 0.0255 -7.7944 -0.0327
										CHANNELS 3 Zrotation Xrotation Yrotation
										JOINT RightHandThumb3
										{
											OFFSET 0.0205 -8.3869 0.0307
											CHANNELS 3 Zrotation Xrotation Yrotation
											JOINT RightHandThumb4
											{
												OFFSET -0.0565 -7.2511 -0.013
												CHANNELS 3 Zrotation Xrotation Yrotation
											}
										}
									}
								}
								JOINT RightHandIndex1
								{
									OFFSET 6.1355 21.3106 -1.073
									CHANNELS 3 Zrotation Xrotation Yrotation
									JOINT RightHandIndex2
									{
										OFFSET -0.0766 -7.536 -0.0238
										CHANNELS 3 Zrotation Xrotation Yrotation
										JOINT RightHandIndex3
										{
											OFFSET 0.0927 -7.5116 0.0451
											CHANNELS 3 Zrotation Xrotation Yrotation
											JOINT RightHandIndex4
											{
												OFFSET 0.0002 -10.2123 -0.0339
												CHANNELS 3 Zrotation Xrotation Yrotation
											}
										}
									}
								}
								JOINT RightHandMiddle1
								{
									OFFSET 0 23.374 -0
									CHANNELS 3 Zrotation Xrotation Yrotation
									JOINT RightHandMiddle2
									{
										OFFSET 0.1878 -6.9921 -0.168
										CHANNELS 3 Zrotation Xrotation Yrotation
										JOINT RightHandMiddle3
										{
											OFFSET 0.0477 -7.0158 0.0144
											CHANNELS 3 Zrotation Xrotation Yrotation
											JOINT RightHandMiddle4
											{
												OFFSET 0.0402 -7.7215 -0.0133
												CHANNELS 3 Zrotation Xrotation Yrotation
											}
										}
									}
								}
								JOINT RightHandRing1
								{
									OFFSET -6.2716 22.7261 1.7123
									CHANNELS 3 Zrotation Xrotation Yrotation
									JOINT RightHandRing2
									{
										OFFSET 0.0452 -6.4083 0.0434
										CHANNELS 3 Zrotation Xrotation Yrotation
										JOINT RightHandRing3
										{
											OFFSET 0.1152 -6.1487 -0.0756
											CHANNELS 3 Zrotation Xrotation Yrotation
											JOINT RightHandRing4
											{
												OFFSET 0.2306 -6.141 -0.0323
												CHANNELS 3 Zrotation Xrotation Yrotation
											}
										}
									}
								}
								JOINT RightHandPinky1
								{
									OFFSET -10.9531 18.9207 3.2871
									CHANNELS 3 Zrotation Xrotation Yrotation
									JOINT RightHandPinky2
									{
										OFFSET 0.0034 -4.9187 0.0963
										CHANNELS 3 Zrotation Xrotation Yrotation
										JOINT RightHandPinky3
										{
											OFFSET -0.0758 -5.2323 0.0358
											CHANNELS 3 Zrotation Xrotation Yrotation
											JOINT RightHandPinky4
											{
												OFFSET 0.1312 -5.5702 0.001
												CHANNELS 3 Zrotation Xrotation Yrotation
											}
										}
									}
								}
							}
						}
					}
				}
			}
		}
	}
	JOINT LeftUpLeg
	{
		OFFSET 19.8991 -7.8851 -3.4295
		CHANNELS 3 Zrotation Xrotation Yrotation
		JOINT LeftLeg
		{
			OFFSET -0 38.4457 -0
			CHANNELS 3 Zrotation Xrotation Yrotation
			JOINT LeftFoot
			{
				OFFSET -0.1321 32.8117 -0.1889
				CHANNELS 3 Zrotation Xrotation Yrotation
				JOINT LeftToeBase
				{
					OFFSET 0 24.02 0
					CHANNELS 3 Zrotation Xrotation Yrotation
					JOINT LeftToe_End
					{
						OFFSET -0 16.6166 -0
						CHANNELS 3 Zrotation Xrotation Yrotation
					}
				}
			}
		}
	}
	JOINT RightUpLeg
	{
		OFFSET -19.8991 -7.8851 -3.4295
		CHANNELS 3 Zrotation Xrotation Yrotation
		JOINT RightLeg
		{
			OFFSET 0 38.4457 -0
			CHANNELS 3 Zrotation Xrotation Yrotation
			JOINT RightFoot
			{
				OFFSET 0.1321 32.8117 -0.1889
				CHANNELS 3 Zrotation Xrotation Yrotation
				JOINT RightToeBase
				{
					OFFSET -0 24.02 0
					CHANNELS 3 Zrotation Xrotation Yrotation
					JOINT RightToe_End
					{
						OFFSET 0 16.6166 -0
						CHANNELS 3 Zrotation Xrotation Yrotation
					}
				}
			}
		}
	}
}
MOTION
Frames: 6
Frame Time: 0.0333333
-77.7295	61.965	331.372	-6.64783	-3.92838	-13.4204	4.4259	24.1984	5.98529	1.35446	1.76968	1.39336	0.98091	17.9969	1.36331	3.28648	26.215	-1.15345	-6.86209	-62.099	-21.4387	-0	-55.7115	-0	-74.0005	2.66498	13.3072	-100.91	5.92575	63.7089	66.4752	36.3228	-14.5871	0.0908173	-3.90201	22.3948	-144.794	-15.3748	-137.734	27.9565	12.0994	-18.4128	-8.73139	-3.48973	-14.0264	-8.6489	-1.81523	-33.3438	-8.90984	-69.5348	5.82022	111.317	65.0294	-129.03	54.0521	66.9388	-64.9961	-0.569979	-8.19974	-4.84949	-93.8651	-67.4213	-92.6218	176.742	59.8759	175.868	14.8143	68.2459	-24.2362	-0	-6.0471	-0	-128.584	-67.15	-125.557	-95.8821	72.5301	99.9966	-34.9373	68.7254	33.0999	0.291655	-5.22659	-2.24865	-138.448	-46.7475	-149.937	-46.4098	44.5304	50.3641	-47.9315	44.6357	51.8312	-2.39024	-0.645758	5.07582	84.2981	3.15501	-13.5024	90.4642	11.0499	-10.3097	-61.4326	8.623	34.3959	-13.7738	-44.6324	-34.6291	172.277	-0.362196	141.548	-29.1277	18.0052	20.7368	-15.4213	-32.247	-10.5145	8.6489	-1.81523	33.3438	116.175	-54.637	123.274	55.6146	45.8503	-59.773	59.6202	46.2349	-63.5855	2.39024	-0.645758	-5.07582	135.992	-56.589	129.445	91.7973	72.8754	-95.9505	27.1472	64.7254	-25.3727	-0.291655	-5.22659	2.24865	109.884	-68.2332	106.878	-177.041	63.8167	-176.206	-9.22581	60.8916	17.7769	-0	-6.0471	-0	25.7336	-59.173	25.8887	-87.7045	70.308	103.517	-21.9133	55.8653	30.2154	0.569979	-8.19974	4.84949	-105.603	44.3809	-41.0822	104.794	-73.2471	117.009	-63.2272	58.2444	37.0122	-12.7003	57.666	11.9223	-0.214127	1.01299	0.205132	130.964	20.3407	29.3208	-146.807	-72.2555	-155.306	128.118	72.2437	-114.964	3.87169	58.1898	-2.53025	0.214127	1.01299	-0.205132
-76.9625	61.5054	331.568	-4.80296	-5.1814	-14.0768	3.01743	25.245	5.46712	0.810577	2.0173	1.27879	0.453777	18.2396	1.27244	3.00922	25.8742	-1.13377	-5.56262	-63.1362	-19.6812	-0	-55.7115	-0	-74.56	2.71008	13.3125	-100.49	6.55871	60.0912	64.5875	35.9377	-12.2722	1.16154	-0.229722	22.135	-146.305	-16.6572	-141	26.9265	10.9403	-17.2579	-8.62353	-3.18703	-13.803	-8.6489	-1.81523	-33.3438	-5.93709	-69.894	9.15618	110.987	65.1578	-128.664	53.5903	66.8805	-64.5078	-0.569979	-8.19974	-4.84949	-94.9251	-67.4706	-93.6785	176.748	59.9555	175.874	14.7368	68.172	-24.1499	-0	-6.0471	-0	-130.272	-67.1161	-127.211	-96.2343	72.4957	100.345	-35.1413	68.8085	33.3024	0.291655	-5.22659	-2.24865	-139.197	-46.8967	-150.556	-46.0686	44.4589	50.015	-47.5877	44.5607	51.4854	-2.39024	-0.645758	5.07582	83.3123	2.64971	-13.5272	93.9571	10.7283	-16.8305	-61.1704	10.0377	32.0371	-12.1047	-44.8748	-33.9198	172.806	-0.184036	144.915	-27.4419	17.7426	19.3744	-15.1169	-31.7162	-10.1095	8.6489	-1.81523	33.3438	116.948	-54.9358	123.856	55.2531	45.8196	-59.4036	59.2518	46.2113	-63.2151	2.39024	-0.645758	-5.07582	137.115	-56.4756	130.593	92.1637	72.8485	-96.3128	27.2926	64.8178	-25.5166	-0.291655	-5.22659	2.24865	110.976	-68.1686	107.963	-177.047	63.8963	-176.213	-9.18389	60.8149	17.7258	-0	-6.0471	-0	24.1993	-59.8627	23.9278	-87.1665	70.3635	102.945	-21.7071	55.7143	29.9815	0.569979	-8.19974	4.84949	-108.292	43.1205	-40.4402	111.761	-73.8555	124.756	-63.6454	60.322	39.311	-13.7822	56.924	12.7339	-0.214127	1.01299	0.205132	128.676	21.5422	27.9772	-146.499	-70.2263	-153.699	130.469	71.5113	-116.662	3.05029	58.131	-1.94713	0.214127	1.01299	-0.205132
-76.1485	61.161	331.724	-1.9597	-6.80851	-14.4263	1.58652	26.5406	4.16967	0.0324991	2.27535	1.00239	-0.268173	18.4897	1.03155	2.35744	25.3727	-1.20273	-4.21082	-63.6627	-17.6362	-0	-55.7115	-0	-76.0914	3.08438	13.2834	-99.3331	9.24397	53.6158	59.0986	34.3171	-8.35095	2.96424	2.99278	22.0334	-148.571	-20.5663	-150.275	23.373	6.32449	-12.4656	-7.43097	-0.11005	-11.4887	-8.6489	-1.81523	-33.3438	2.53276	-73.125	19.1655	109.923	65.5561	-127.489	52.1522	66.6871	-62.9864	-0.569979	-8.19974	-4.84949	-101.418	-67.6283	-100.154	176.773	60.2767	175.902	14.429	67.8734	-23.8067	-0	-6.0471	-0	-138.913	-65.2178	-135.721	-95.1282	72.6013	99.2512	-34.5084	68.5473	32.6743	0.291655	-5.22659	-2.24865	-142.678	-45.9852	-153.969	-45.8346	44.4089	49.7756	-47.352	44.5082	51.2483	-2.39024	-0.645758	5.07582	81.3385	1.02766	-13.6895	98.234	10.9237	-25.6839	-60.123	12.3915	27.652	-6.57657	-43.7594	-31.2053	172.058	-0.316555	154.337	-21.0638	16.2593	13.8954	-16.2881	-27.7991	-10.6387	8.6489	-1.81523	33.3438	121.551	-54.9581	128.247	55.005	45.7974	-59.1502	58.9986	46.194	-62.9606	2.39024	-0.645758	-5.07582	142.672	-54.2706	136.308	91.0138	72.9305	-95.1755	26.841	64.5282	-25.0698	-0.291655	-5.22659	2.24865	117.444	-67.6359	114.394	-177.071	64.2176	-176.24	-9.01777	60.5055	17.5232	-0	-6.0471	-0	21.8826	-64.0176	20.1389	-85.4529	70.5265	101.122	-21.0706	55.2362	29.2573	0.569979	-8.19974	4.84949	-112.837	41.611	-39.9566	116.164	-74.1577	129.765	-64.2261	62.4094	41.83	-15.0163	56.2286	14.2973	-0.214127	1.01299	0.205132	125.044	22.761	25.773	-147.937	-68.4309	-154.08	131.777	70.8562	-117.021	2.28802	58.2011	-1.29093	0.214127	1.01299	-0.205132
-75.2877	61.1221	331.93	1.65465	-8.53695	-13.9955	0.388258	27.8485	1.60401	-0.980273	2.47802	0.45963	-1.15524	18.6851	0.535421	1.57723	24.7082	-1.26569	-2.0095	-63.8346	-14.4691	-0	-55.7115	-0	-78.5423	3.20862	13.3326	-96.2184	14.8429	44.88	48.784	29.8476	-6.13133	7.84492	-2.45243	23.7828	-154.801	-28.091	-162.578	20.7568	2.24879	-8.67643	-6.08867	4.06866	-8.51933	-8.6489	-1.81523	-33.3438	26.1885	-80.9365	45.78	108.381	66.0947	-125.794	50.193	66.3933	-60.9111	-0.569979	-8.19974	-4.84949	-117.872	-66.9013	-116.54	176.815	60.8126	175.947	13.9348	67.3739	-23.2532	-0	-6.0471	-0	-151.525	-59.1682	-148.206	-91.0148	72.9297	95.1834	-32.3379	67.5804	30.5206	0.291655	-5.22659	-2.24865	-149.542	-41.7415	-161.269	-40.2282	42.9609	44.035	-41.7109	43.0002	45.5726	-2.39024	-0.645758	5.07582	79.0434	-0.644419	-13.915	101.252	10.3689	-34.797	-57.8824	17.8132	23.1181	5.65321	-35.7204	-24.8627	173.563	-3.5234	167.295	-16.0553	14.1158	9.80309	-17.7875	-22.617	-11.3245	8.6489	-1.81523	33.3438	132.076	-52.6898	139.044	48.9755	45.014	-52.9881	52.8342	45.5255	-56.7622	2.39024	-0.645758	-5.07582	151.232	-48.0644	145.293	86.7632	73.1701	-90.9704	25.2865	63.4662	-23.5324	-0.291655	-5.22659	2.24865	132.357	-65.2611	129.199	-177.111	64.7535	-176.286	-8.74904	59.9887	17.1933	-0	-6.0471	-0	23.9638	-73.6596	19.8391	-83.0226	70.7225	98.5404	-20.215	54.5634	28.2793	0.569979	-8.19974	4.84949	-118.673	40.4347	-39.9917	115.862	-74.2815	129.914	-63.9321	63.675	42.892	-16.2453	55.302	16.23	-0.214127	1.01299	0.205132	120.361	23.1468	23.1578	-150.156	-67.6048	-155.779	132.275	70.4244	-116.596	1.54774	58.2476	-0.831946	0.214127	1.01299	-0.205132
-74.4713	61.3271	332.238	5.23967	-9.81567	-13.3461	-0.568155	28.602	-1.08559	-2.11156	2.5516	-0.0660655	-2.17426	18.7546	0.0732915	1.00883	24.0849	-1.33537	0.694349	-63.4848	-11.0018	-0	-55.7115	-0	-81.8413	3.10175	13.4393	-88.6373	23.0967	34.6518	34.9769	20.8003	-11.8838	18.5599	-15.8256	29.5006	-163.389	-35.1683	-173.668	21.0381	2.72948	-9.13625	-5.74292	5.26318	-7.69263	-8.6489	-1.81523	-33.3438	94.5544	-83.792	116.592	107.595	66.3529	-124.932	49.2466	66.2382	-59.9074	-0.569979	-8.19974	-4.84949	-133.106	-64.3391	-131.697	176.844	61.1887	175.979	13.6011	67.0222	-22.8778	-0	-6.0471	-0	-158.727	-52.7749	-155.438	-86.6648	73.1739	90.8799	-30.3022	66.5616	28.5023	0.291655	-5.22659	-2.24865	-155.147	-36.2733	-167.559	-32.4682	40.0597	36.0691	-33.9185	40.0151	37.7273	-2.39024	-0.645758	5.07582	77.483	-1.26993	-14.0192	101.999	8.10845	-42.5027	-56.6657	26.161	20.0773	17.5786	-19.2955	-20.7916	177.524	-8.07313	177.955	-16.627	14.392	10.2863	-17.8825	-21.0304	-11.1877	8.6489	-1.81523	33.3438	141.286	-48.7381	148.812	40.3857	43.0085	-44.1964	44.0036	43.6733	-47.8797	2.39024	-0.645758	-5.07582	156.603	-41.7625	151.196	82.3135	73.3193	-86.5672	23.8177	62.362	-22.0813	-0.291655	-5.22659	2.24865	144.75	-61.3538	141.473	-177.139	65.1297	-176.318	-8.56634	59.6253	16.9677	-0	-6.0471	-0	38.0092	-82.4807	32.1298	-81.8078	70.8057	97.251	-19.806	54.229	27.8098	0.569979	-8.19974	4.84949	-124.104	39.4708	-40.2155	113.523	-74.8497	128.06	-62.1883	64.1681	42.4156	-17.6912	54.6436	17.9691	-0.214127	1.01299	0.205132	115.879	23.1528	20.6769	-151.407	-67.7942	-157.235	132.332	70.2255	-115.647	0.524329	57.7887	-0.724534	0.214127	1.01299	-0.205132
-73.9865	61.4671	332.501	7.63163	-10.3409	-13.5771	-1.43906	28.4761	-2.32172	-3.03644	2.49558	-0.244732	-3.08636	18.6931	-0.0372658	0.723419	23.7956	-1.44474	3.02679	-62.8324	-8.33879	-0	-55.7115	-0	-84.7825	2.98305	13.5349	-77.5936	29.9109	24.6982	23.328	9.94649	-28.8623	33.2798	-24.5044	38.014	-170.09	-38.3297	179.81	21.6863	3.81985	-10.2241	-6.14665	3.86327	-8.66163	-8.6489	-1.81523	-33.3438	115.934	-82.6196	138.586	107.924	66.2463	-125.292	49.6376	66.3033	-60.3222	-0.569979	-8.19974	-4.84949	-137.826	-63.0281	-136.388	176.841	61.1481	175.976	13.6367	67.0603	-22.9179	-0	-6.0471	-0	-160.369	-50.8631	-157.106	-85.8809	73.2071	90.1044	-29.9593	66.3781	28.1624	0.291655	-5.22659	-2.24865	-156.956	-34.03	-169.664	-30.1352	38.9488	33.668	-31.5782	38.8788	35.3694	-2.39024	-0.645758	5.07582	76.5418	-0.981416	-13.9649	101.763	4.35651	-47.2903	-59.6014	35.6135	20.4596	24.2573	-5.24909	-20.4505	-178.624	-10.5316	-176.729	-17.9532	14.9711	11.443	-16.8361	-22.5297	-10.3967	8.6489	-1.81523	33.3438	144.302	-46.9476	152.071	37.7552	42.1581	-41.4994	41.2891	42.867	-45.1482	2.39024	-0.645758	-5.07582	157.89	-39.8937	152.658	81.5175	73.3355	-85.7795	23.5691	62.1644	-21.8358	-0.291655	-5.22659	2.24865	148.424	-59.6664	145.103	-177.137	65.0891	-176.314	-8.58579	59.6646	16.9919	-0	-6.0471	-0	53.821	-84.755	47.5658	-82.3133	70.7722	97.7873	-19.9748	54.368	28.0037	0.569979	-8.19974	4.84949	-126.85	37.8536	-40.4825	112.253	-76.2211	127.918	-61.0454	64.6747	42.3093	-19.5147	54.2542	20.3591	-0.214127	1.01299	0.205132	113.141	24.0564	18.4223	-152.388	-68.3361	-158.825	132.396	70.1427	-114.672	-0.498073	57.2689	-0.113557	0.214127	1.01299	-0.205132
